<svg width="42" height="55" viewBox="0 0 42 55" fill="none" xmlns="http://www.w3.org/2000/svg">
<g clip-path="url(#clip0_640:1794)">
<path d="M32.8125 34.375C30.9954 34.375 29.2191 33.6694 27.7082 32.3474C26.1973 31.0254 25.0197 29.1463 24.3244 26.9479C23.629 24.7495 23.447 22.3304 23.8015 19.9966C24.156 17.6627 25.0311 15.519 26.316 13.8364C27.6009 12.1538 29.2379 11.0079 31.0201 10.5437C32.8023 10.0795 34.6496 10.3177 36.3284 11.2283C38.0072 12.1389 39.4421 13.681 40.4516 15.6596C41.4612 17.6381 42 19.9642 42 22.3438L42.042 24.0625C42.042 27.2224 41.5667 30.3514 40.6433 33.2708C39.7199 36.1902 38.3664 38.8429 36.6601 41.0773C34.9538 43.3117 32.9282 45.0841 30.6988 46.2934C28.4695 47.5026 26.08 48.125 23.667 48.125V41.25C25.3914 41.2561 27.0995 40.8144 28.6927 39.9506C30.286 39.0868 31.7326 37.818 32.949 36.2175C33.4218 35.5996 33.8579 34.9353 34.2536 34.2306C33.7769 34.3287 33.2951 34.3782 32.8125 34.3784V34.375ZM9.1875 34.375C7.37039 34.375 5.59408 33.6694 4.0832 32.3474C2.57233 31.0254 1.39474 29.1463 0.699361 26.9479C0.00398087 24.7495 -0.177962 22.3304 0.176539 19.9966C0.531041 17.6627 1.40607 15.519 2.69096 13.8364C3.97586 12.1538 5.61291 11.0079 7.39511 10.5437C9.17731 10.0795 11.0246 10.3177 12.7034 11.2283C14.3822 12.1389 15.8171 13.681 16.8266 15.6596C17.8362 17.6381 18.375 19.9642 18.375 22.3438L18.417 24.0625C18.417 30.4443 16.4811 36.5647 13.0351 41.0773C9.58911 45.5899 4.91536 48.125 0.0420041 48.125V41.25C1.76636 41.2561 3.47453 40.8144 5.06774 39.9506C6.66095 39.0868 8.10759 37.818 9.324 36.2175C9.79678 35.5996 10.2329 34.9353 10.6286 34.2306C10.1519 34.3287 9.67008 34.3782 9.1875 34.3784V34.375Z" fill="#6A88D6"/>
</g>
<defs>
<clipPath id="clip0_640:1794">
<rect width="42" height="55" fill="white"/>
</clipPath>
</defs>
</svg>
