<svg width="46" height="49" viewBox="0 0 46 49" fill="none" xmlns="http://www.w3.org/2000/svg">
<g clip-path="url(#clip0_640:1792)">
<path d="M10.1085 21.4375C12.0987 21.4375 14.0442 22.0661 15.6989 23.2439C17.3537 24.4217 18.6434 26.0958 19.405 28.0544C20.1666 30.013 20.3659 32.1681 19.9777 34.2474C19.5894 36.3266 18.631 38.2365 17.2238 39.7356C15.8165 41.2346 14.0235 42.2555 12.0716 42.669C10.1197 43.0826 8.09643 42.8704 6.25775 42.0591C4.41907 41.2478 2.84752 39.874 1.74184 38.1113C0.636155 36.3486 0.046 34.2762 0.046 32.1563L0 30.625C0 24.9394 2.12031 19.4867 5.89448 15.4664C9.66865 11.4461 14.7875 9.1875 20.125 9.1875V15.3125C18.2364 15.3071 16.3656 15.7005 14.6206 16.4701C12.8757 17.2397 11.2913 18.3701 9.959 19.796C9.4412 20.3465 8.96352 20.9383 8.53013 21.5661C9.04475 21.4804 9.57088 21.4344 10.1056 21.4344L10.1085 21.4375ZM35.9835 21.4375C37.9737 21.4375 39.9192 22.0661 41.5739 23.2439C43.2287 24.4217 44.5184 26.0958 45.28 28.0544C46.0416 30.013 46.2409 32.1681 45.8527 34.2474C45.4644 36.3266 44.506 38.2365 43.0988 39.7356C41.6915 41.2346 39.8985 42.2555 37.9466 42.669C35.9947 43.0826 33.9714 42.8704 32.1327 42.0591C30.2941 41.2478 28.7225 39.874 27.6168 38.1113C26.5112 36.3486 25.921 34.2762 25.921 32.1563L25.875 30.625C25.875 24.9394 27.9953 19.4867 31.7695 15.4664C35.5436 11.4461 40.6625 9.1875 46 9.1875V15.3125C44.1114 15.3071 42.2406 15.7005 40.4956 16.4701C38.7507 17.2397 37.1663 18.3701 35.834 19.796C35.3162 20.3465 34.8385 20.9383 34.4051 21.5661C34.9198 21.4804 35.4459 21.4344 35.9835 21.4344V21.4375Z" fill="#6187E9"/>
</g>
<defs>
<clipPath id="clip0_640:1792">
<rect width="46" height="49" fill="white"/>
</clipPath>
</defs>
</svg>
